<?xml version="1.0" encoding="utf-8"?>
<!-- Generator: Adobe Illustrator 15.1.0, SVG Export Plug-In . SVG Version: 6.00 Build 0)  -->
<!DOCTYPE svg PUBLIC "-//W3C//DTD SVG 1.1//EN" "http://www.w3.org/Graphics/SVG/1.1/DTD/svg11.dtd">
<svg version="1.1" id="Capa_1" xmlns="http://www.w3.org/2000/svg" xmlns:xlink="http://www.w3.org/1999/xlink" x="0px" y="0px"
	 width="50px" height="50px" viewBox="0 438.446 50 50" enable-background="new 0 438.446 50 50" xml:space="preserve">
<g>
	<g>
		<g>
			<path fill="#F1F2F2" d="M16.515,449.119h16.971c0.505,0,0.919-0.413,0.919-0.919v-7.476h-18.81v7.476
				C15.595,448.706,16.008,449.119,16.515,449.119z"/>
			<path fill="#F1F2F2" d="M47.012,452.155l-9.577-9.616v5.661c0,2.178-1.771,3.949-3.949,3.949H16.515
				c-2.178,0-3.949-1.771-3.949-3.949v-7.476H6.448c-2.303,0-4.17,1.867-4.17,4.169v37.105c0,2.302,1.867,4.169,4.17,4.169h37.104
				c2.301,0,4.169-1.867,4.169-4.169v-28.126C47.722,453.228,47.466,452.611,47.012,452.155z M40.652,476.605
				c0,1.343-1.089,2.434-2.435,2.434H11.781c-1.345,0-2.434-1.091-2.434-2.434v-12.687c0-1.343,1.089-2.433,2.434-2.433h26.437
				c1.345,0,2.435,1.09,2.435,2.433V476.605z"/>
			<path fill="#F1F2F2" d="M35.446,465.391H14.554c-0.838,0-1.516,0.677-1.516,1.515s0.678,1.514,1.516,1.514h20.892
				c0.836,0,1.514-0.676,1.514-1.514S36.282,465.391,35.446,465.391z"/>
			<path fill="#F1F2F2" d="M32.417,471.451H17.583c-0.837,0-1.515,0.677-1.515,1.515c0,0.837,0.678,1.515,1.515,1.515h14.832
				c0.837,0,1.515-0.678,1.515-1.515C33.931,472.127,33.252,471.451,32.417,471.451z"/>
		</g>
	</g>
</g>
</svg>
